<?xml version="1.0" encoding="UTF-8" standalone="no"?>
<svg width="128px" height="128px" viewBox="0 0 128 128" version="1.1" xmlns="http://www.w3.org/2000/svg" xmlns:xlink="http://www.w3.org/1999/xlink">
    <!-- Generator: Sketch 43.2 (39069) - http://www.bohemiancoding.com/sketch -->
    <title>Group</title>
    <desc>Created with Sketch.</desc>
    <defs></defs>
    <g id="Page-1" stroke="none" stroke-width="1" fill="none" fill-rule="evenodd">
        <g id="Group" transform="translate(-8.000000, -8.000000)">
            <circle id="face" fill="#4A4A4A" cx="72" cy="72" r="64"></circle>
            <circle id="base" fill="#F8F0F0" cx="72" cy="72" r="56"></circle>
            <g id="numbers1" transform="translate(20.000000, 20.000000)" fill="#417505">
                <circle id="clock-12" cx="52" cy="2" r="2"></circle>
                <circle id="clock-06" cx="52" cy="102" r="2"></circle>
                <circle id="clock-03" cx="102" cy="52" r="2"></circle>
                <circle id="clock-09" cx="2" cy="52" r="2"></circle>
            </g>
            <g id="numbers3" transform="translate(72.000000, 72.000000) rotate(60.000000) translate(-72.000000, -72.000000) translate(20.000000, 20.000000)" fill="#417505">
                <circle id="clock-12" cx="52" cy="2" r="2"></circle>
                <circle id="clock-06" cx="52" cy="102" r="2"></circle>
                <circle id="clock-03" cx="102" cy="52" r="2"></circle>
                <circle id="clock-09" cx="2" cy="52" r="2"></circle>
            </g>
            <g id="numbers2" transform="translate(72.000000, 72.000000) rotate(30.000000) translate(-72.000000, -72.000000) translate(20.000000, 20.000000)" fill="#417505">
                <circle id="clock-12" cx="52" cy="2" r="2"></circle>
                <circle id="clock-06" cx="52" cy="102" r="2"></circle>
                <circle id="clock-03" cx="102" cy="52" r="2"></circle>
                <circle id="clock-09" cx="2" cy="52" r="2"></circle>
            </g>
            <rect id="minute" fill="#898E99" x="70.5" y="27" width="3" height="45"></rect>
            <rect id="hour" fill="#898E99" transform="translate(54.000000, 72.000000) rotate(270.000000) translate(-54.000000, -72.000000) " x="52.5" y="57" width="3" height="30"></rect>
            <circle id="centerpiece" fill="#4A4A4A" cx="72" cy="72" r="7"></circle>
        </g>
    </g>
</svg>